<svg xmlns="http://www.w3.org/2000/svg" width="20" height="15" viewBox="0 0 20 15">
  <metadata><?xpacket begin="﻿" id="W5M0MpCehiHzreSzNTczkc9d"?>
<x:xmpmeta xmlns:x="adobe:ns:meta/" x:xmptk="Adobe XMP Core 5.6-c142 79.160924, 2017/07/13-01:06:39        ">
   <rdf:RDF xmlns:rdf="http://www.w3.org/1999/02/22-rdf-syntax-ns#">
      <rdf:Description rdf:about=""/>
   </rdf:RDF>
</x:xmpmeta>
                                                                                                    
                                                                                                    
                                                                                                    
                                                                                                    
                                                                                                    
                                                                                                    
                                                                                                    
                                                                                                    
                                                                                                    
                                                                                                    
                                                                                                    
                                                                                                    
                                                                                                    
                                                                                                    
                                                                                                    
                                                                                                    
                                                                                                    
                                                                                                    
                                                                                                    
                                                                                                    
                           
<?xpacket end="w"?></metadata>
<defs>
    <style>
      .cls-1 {
        fill: #697290;
        fill-rule: evenodd;
      }
    </style>
  </defs>
  <path class="cls-1" d="M386,476H372a3,3,0,0,0-3,3h0v9a3,3,0,0,0,3,3h14a3,3,0,0,0,3-3v-9A3,3,0,0,0,386,476Zm-0.42,2-5.88,4.92a1,1,0,0,1-1.4,0L372.42,478h13.16ZM387,488a1,1,0,0,1-1,1H372a1,1,0,0,1-1-1v-8.59l5.88,4.88a3,3,0,0,0,4.24,0l5.88-4.88V488Z" transform="translate(-369 -476)"/>
</svg>
