<svg xmlns="http://www.w3.org/2000/svg" width="16" height="17" viewBox="0 0 16 17">
  <metadata><?xpacket begin="﻿" id="W5M0MpCehiHzreSzNTczkc9d"?>
<x:xmpmeta xmlns:x="adobe:ns:meta/" x:xmptk="Adobe XMP Core 5.6-c142 79.160924, 2017/07/13-01:06:39        ">
   <rdf:RDF xmlns:rdf="http://www.w3.org/1999/02/22-rdf-syntax-ns#">
      <rdf:Description rdf:about=""/>
   </rdf:RDF>
</x:xmpmeta>
                                                                                                    
                                                                                                    
                                                                                                    
                                                                                                    
                                                                                                    
                                                                                                    
                                                                                                    
                                                                                                    
                                                                                                    
                                                                                                    
                                                                                                    
                                                                                                    
                                                                                                    
                                                                                                    
                                                                                                    
                                                                                                    
                                                                                                    
                                                                                                    
                                                                                                    
                                                                                                    
                           
<?xpacket end="w"?></metadata>
<defs>
    <style>
      .cls-1 {
        fill: #697290;
        fill-rule: evenodd;
      }
    </style>
  </defs>
  <path class="cls-1" d="M134.3,482.72A4.919,4.919,0,0,0,136,479a5,5,0,0,0-10,0,4.919,4.919,0,0,0,1.7,3.72A8,8,0,0,0,123,490a1,1,0,0,0,2,0,6,6,0,0,1,12,0,1,1,0,0,0,2,0A8,8,0,0,0,134.3,482.72ZM131,482a3,3,0,1,1,3-3A3,3,0,0,1,131,482Z" transform="translate(-123 -474)"/>
</svg>
